<svg xmlns="http://www.w3.org/2000/svg" xmlns:xlink="http://www.w3.org/1999/xlink" viewBox="0,0,256,256" width="200px" height="200px" fill-rule="nonzero"><defs><radialGradient cx="19.906" cy="24.876" r="19.009" gradientUnits="userSpaceOnUse" id="color-1"><stop offset="0.313" stop-color="#fcfcfc"></stop><stop offset="0.465" stop-color="#eff0f1"></stop><stop offset="0.741" stop-color="#ced1d3"></stop><stop offset="1" stop-color="#aaafb3"></stop></radialGradient><radialGradient cx="15.71" cy="13.25" r="3.456" gradientUnits="userSpaceOnUse" id="color-2"><stop offset="0.313" stop-color="#9da2a6" stop-opacity="0"></stop><stop offset="1" stop-color="#9da2a6"></stop></radialGradient><radialGradient cx="10.355" cy="18.625" r="1.728" gradientUnits="userSpaceOnUse" id="color-3"><stop offset="0.313" stop-color="#9da2a6" stop-opacity="0"></stop><stop offset="1" stop-color="#9da2a6"></stop></radialGradient><linearGradient x1="22.313" y1="16.079" x2="26.618" y2="41.448" gradientUnits="userSpaceOnUse" id="color-4"><stop offset="0" stop-color="#a0a9ff"></stop><stop offset="0.398" stop-color="#7f87ed"></stop><stop offset="0.796" stop-color="#6069d1"></stop><stop offset="1" stop-color="#5059c9"></stop></linearGradient></defs><g fill-opacity="0.27059" fill="#000000" fill-rule="nonzero" stroke="none" stroke-width="1" stroke-linecap="butt" stroke-linejoin="miter" stroke-miterlimit="10" stroke-dasharray="" stroke-dashoffset="0" font-family="none" font-weight="none" font-size="none" text-anchor="none" style="mix-blend-mode: normal"><path d="M64,256c-35.34622,0 -64,-28.65378 -64,-64v-128c0,-35.34622 28.65378,-64 64,-64h128c35.34622,0 64,28.65378 64,64v128c0,35.34622 -28.65378,64 -64,64z" id="shape"></path></g><g fill="none" fill-rule="nonzero" stroke="none" stroke-width="1" stroke-linecap="butt" stroke-linejoin="miter" stroke-miterlimit="10" stroke-dasharray="" stroke-dashoffset="0" font-family="none" font-weight="none" font-size="none" text-anchor="none" style="mix-blend-mode: normal"><g transform="scale(5.33333,5.33333)"><path d="M16,7c-6.075,0 -11,4.925 -11,11c0,6.075 4.925,11 11,11c6.075,0 11,-4.925 11,-11c0,-6.075 -4.925,-11 -11,-11z" fill="url(#color-1)"></path><path d="M15,10c-1.105,0 -2,0.895 -2,2c0,1.105 0.895,2 2,2c1.105,0 2,-0.895 2,-2c0,-1.105 -0.895,-2 -2,-2z" fill="url(#color-2)"></path><path d="M10,17c-0.552,0 -1,0.448 -1,1c0,0.552 0.448,1 1,1c0.552,0 1,-0.448 1,-1c0,-0.552 -0.448,-1 -1,-1z" fill="url(#color-3)"></path><path d="M35,21c-0.331,0 -0.657,0.018 -0.98,0.049c-2.279,-3.059 -5.912,-5.049 -10.02,-5.049c-5.713,0 -10.52,3.837 -12.012,9.071c-3.939,0.498 -6.988,3.854 -6.988,7.929c0,4.418 3.582,8 8,8c1.818,0 20.107,0 22,0c5.523,0 10,-4.477 10,-10c0,-5.523 -4.477,-10 -10,-10z" fill="url(#color-4)"></path></g></g></svg>