<svg xmlns="http://www.w3.org/2000/svg" xmlns:xlink="http://www.w3.org/1999/xlink" viewBox="0,0,256,256" width="200px" height="200px" fill-rule="nonzero"><defs><radialGradient cx="40.31" cy="43.238" r="43.767" gradientUnits="userSpaceOnUse" id="color-1"><stop offset="0" stop-color="#6d75d6"></stop><stop offset="0.123" stop-color="#8189de"></stop><stop offset="0.384" stop-color="#a7adec"></stop><stop offset="0.625" stop-color="#c3c7f6"></stop><stop offset="0.838" stop-color="#d3d6fd"></stop><stop offset="1" stop-color="#d9dcff"></stop></radialGradient><radialGradient cx="22.06469" cy="14.87604" r="5.18403" gradientUnits="userSpaceOnUse" id="color-2"><stop offset="0.313" stop-color="#6063e0" stop-opacity="0"></stop><stop offset="1" stop-color="#6063e0"></stop></radialGradient><radialGradient cx="13.71" cy="25.25" r="3.456" gradientUnits="userSpaceOnUse" id="color-3"><stop offset="0.313" stop-color="#6063e0" stop-opacity="0"></stop><stop offset="1" stop-color="#6063e0"></stop></radialGradient><radialGradient cx="37.033" cy="22.438" r="2.592" gradientUnits="userSpaceOnUse" id="color-4"><stop offset="0.313" stop-color="#6063e0" stop-opacity="0"></stop><stop offset="1" stop-color="#6063e0"></stop></radialGradient></defs><g transform="translate(15.36,15.36) scale(0.88,0.88)"><g fill-opacity="0.27059" fill="#000000" fill-rule="nonzero" stroke="none" stroke-width="1" stroke-linecap="butt" stroke-linejoin="miter" stroke-miterlimit="10" stroke-dasharray="" stroke-dashoffset="0" font-family="none" font-weight="none" font-size="none" text-anchor="none" style="mix-blend-mode: normal"><path d="M55.27273,273.45455c-40.16616,0 -72.72727,-32.56111 -72.72727,-72.72727v-145.45455c0,-40.16616 32.56111,-72.72727 72.72727,-72.72727h145.45455c40.16616,0 72.72727,32.56111 72.72727,72.72727v145.45455c0,40.16616 -32.56111,72.72727 -72.72727,72.72727z" id="shape"></path></g><g fill="none" fill-rule="nonzero" stroke="none" stroke-width="1" stroke-linecap="butt" stroke-linejoin="miter" stroke-miterlimit="10" stroke-dasharray="" stroke-dashoffset="0" font-family="none" font-weight="none" font-size="none" text-anchor="none" style="mix-blend-mode: normal"><g transform="scale(5.33333,5.33333)"><path d="M24,4c-11.046,0 -20,8.954 -20,20c0,11.046 8.954,20 20,20c11.046,0 20,-8.954 20,-20c0,-11.046 -8.954,-20 -20,-20z" fill="url(#color-1)"></path><path d="M21,10c-1.657,0 -3,1.343 -3,3c0,1.657 1.343,3 3,3c1.657,0 3,-1.343 3,-3c0,-1.657 -1.343,-3 -3,-3z" fill="url(#color-2)"></path><path d="M13,22c-1.105,0 -2,0.895 -2,2c0,1.105 0.895,2 2,2c1.105,0 2,-0.895 2,-2c0,-1.105 -0.895,-2 -2,-2z" fill="url(#color-3)"></path><path d="M36.5,20c-0.828,0 -1.5,0.672 -1.5,1.5c0,0.828 0.672,1.5 1.5,1.5c0.828,0 1.5,-0.672 1.5,-1.5c0,-0.828 -0.672,-1.5 -1.5,-1.5z" fill="url(#color-4)"></path><path d="M5.675,32h-1.675c-1.104,0 -2,0.896 -2,2c0,1.104 0.896,2 2,2h3c1.104,0 2,0.896 2,2c0,1.104 -0.896,2 -2,2c-1.104,0 -2,0.896 -2,2c0,1.104 0.896,2 2,2h17c-8.199,0 -15.237,-4.939 -18.325,-12z" fill="#5059c9"></path><path d="M42,40h-6.036c-3.339,2.501 -7.471,4 -11.964,4h18c0.8,0 1.485,-0.473 1.805,-1.152h0.001l0.001,-0.002c0.057,-0.123 0.104,-0.25 0.135,-0.385c0.002,-0.008 0.006,-0.016 0.008,-0.023c0.03,-0.142 0.05,-0.288 0.05,-0.438c0,-1.104 -0.896,-2 -2,-2z" fill="#5059c9"></path><path d="M30,40c-1.104,0 -2,-0.896 -2,-2c0,-1.104 0.896,-2 2,-2h6c1.104,0 2,-0.896 2,-2c0,-1.104 -0.896,-2 -2,-2h-9h-3h-4c-1.104,0 -2,-0.896 -2,-2c0,-1.102 0.89,-1.994 1.99,-1.999h2.01c1.104,0 2,-0.896 2,-2v-0.001c0,-1.104 -0.896,-2 -2,-2h-14v0.001c-1.104,0 -2,0.896 -2,2c0,1.104 0.896,2 2,2v-0.001h2c1.105,0 2,0.895 2,2c0,1.105 -0.895,2 -2,2h-4.325c3.088,7.061 10.126,12 18.325,12c4.492,0 8.625,-1.499 11.964,-4z" fill="#636cdf"></path></g></g></g></svg>