<svg xmlns="http://www.w3.org/2000/svg" xmlns:xlink="http://www.w3.org/1999/xlink" viewBox="0,0,256,256" width="200px" height="200px" fill-rule="nonzero"><defs><linearGradient x1="21.313" y1="6.079" x2="25.618" y2="31.448" gradientUnits="userSpaceOnUse" id="color-1"><stop offset="0" stop-color="#7982db"></stop><stop offset="1" stop-color="#5059c9"></stop></linearGradient></defs><g transform="translate(12.8,12.8) scale(0.9,0.9)"><g fill-opacity="0.27059" fill="#000000" fill-rule="nonzero" stroke="none" stroke-width="1" stroke-linecap="butt" stroke-linejoin="miter" stroke-miterlimit="10" stroke-dasharray="" stroke-dashoffset="0" font-family="none" font-weight="none" font-size="none" text-anchor="none" style="mix-blend-mode: normal"><path d="M56.88889,270.22222c-39.27358,0 -71.11111,-31.83753 -71.11111,-71.11111v-142.22222c0,-39.27358 31.83753,-71.11111 71.11111,-71.11111h142.22222c39.27358,0 71.11111,31.83753 71.11111,71.11111v142.22222c0,39.27358 -31.83753,71.11111 -71.11111,71.11111z" id="shape"></path></g><g fill="none" fill-rule="nonzero" stroke="none" stroke-width="1" stroke-linecap="butt" stroke-linejoin="miter" stroke-miterlimit="10" stroke-dasharray="" stroke-dashoffset="0" font-family="none" font-weight="none" font-size="none" text-anchor="none" style="mix-blend-mode: normal"><g transform="scale(5.33333,5.33333)"><path d="M34,11c-0.331,0 -0.657,0.018 -0.98,0.049c-2.279,-3.059 -5.912,-5.049 -10.02,-5.049c-5.713,0 -10.52,3.837 -12.012,9.071c-3.939,0.498 -6.988,3.854 -6.988,7.929c0,4.418 3.582,8 8,8c1.818,0 20.107,0 22,0c5.523,0 10,-4.477 10,-10c0,-5.523 -4.477,-10 -10,-10z" fill="url(#color-1)"></path><path d="M35.414,39.414c-0.781,0.781 -2.047,0.781 -2.828,0c-0.781,-0.781 -0.781,-2.047 0,-2.828c0.781,-0.781 4.414,-1.586 4.414,-1.586c0,0 -0.805,3.633 -1.586,4.414z" fill="#199be2"></path><path d="M12.414,38.414c-0.781,0.781 -2.047,0.781 -2.828,0c-0.781,-0.781 -0.781,-2.047 0,-2.828c0.781,-0.781 4.414,-1.586 4.414,-1.586c0,0 -0.805,3.633 -1.586,4.414z" fill="#199be2"></path><path d="M22,46c-0.553,0 -1,-0.448 -1,-1v-6c0,-0.552 0.447,-1 1,-1c0.553,0 1,0.448 1,1v6c0,0.552 -0.447,1 -1,1z" fill="#199be2"></path><path d="M19.403,44.5c-0.346,0 -0.682,-0.179 -0.867,-0.5c-0.276,-0.478 -0.112,-1.09 0.366,-1.366l5.195,-3c0.477,-0.276 1.089,-0.113 1.366,0.366c0.276,0.478 0.112,1.09 -0.366,1.366l-5.195,3c-0.157,0.091 -0.329,0.134 -0.499,0.134z" fill="#199be2"></path><path d="M24.597,44.5c-0.17,0 -0.342,-0.043 -0.499,-0.134l-5.195,-3c-0.479,-0.276 -0.643,-0.888 -0.367,-1.366c0.276,-0.479 0.889,-0.643 1.366,-0.366l5.195,3c0.479,0.276 0.643,0.888 0.366,1.366c-0.185,0.321 -0.521,0.5 -0.866,0.5z" fill="#199be2"></path></g></g></g></svg>