<svg xmlns="http://www.w3.org/2000/svg" xmlns:xlink="http://www.w3.org/1999/xlink" viewBox="0,0,256,256" width="200px" height="200px" fill-rule="nonzero"><defs><linearGradient x1="21.313" y1="6.079" x2="25.618" y2="31.448" gradientUnits="userSpaceOnUse" id="color-1"><stop offset="0" stop-color="#7880e2"></stop><stop offset="1" stop-color="#5059c9"></stop></linearGradient></defs><g transform="translate(12.8,12.8) scale(0.9,0.9)"><g fill-opacity="0.27059" fill="#000000" fill-rule="nonzero" stroke="none" stroke-width="1" stroke-linecap="butt" stroke-linejoin="miter" stroke-miterlimit="10" stroke-dasharray="" stroke-dashoffset="0" font-family="none" font-weight="none" font-size="none" text-anchor="none" style="mix-blend-mode: normal"><path d="M56.88889,270.22222c-39.27358,0 -71.11111,-31.83753 -71.11111,-71.11111v-142.22222c0,-39.27358 31.83753,-71.11111 71.11111,-71.11111h142.22222c39.27358,0 71.11111,31.83753 71.11111,71.11111v142.22222c0,39.27358 -31.83753,71.11111 -71.11111,71.11111z" id="shape"></path></g><g fill="none" fill-rule="nonzero" stroke="none" stroke-width="1" stroke-linecap="butt" stroke-linejoin="miter" stroke-miterlimit="10" stroke-dasharray="" stroke-dashoffset="0" font-family="none" font-weight="none" font-size="none" text-anchor="none" style="mix-blend-mode: normal"><g transform="scale(5.33333,5.33333)"><path d="M23.554,36.36l-2.446,3.311c-0.145,0.196 -0.145,0.463 0,0.659l2.446,3.311c0.111,0.15 0.278,0.225 0.446,0.225l1,-3.866l-1,-3.865c-0.167,0 -0.335,0.075 -0.446,0.225z" fill="#35c1f1"></path><path d="M34,11c-0.331,0 -0.657,0.018 -0.98,0.049c-2.279,-3.059 -5.912,-5.049 -10.02,-5.049c-5.713,0 -10.52,3.837 -12.012,9.071c-3.939,0.498 -6.988,3.854 -6.988,7.929c0,4.418 3.582,8 8,8c1.818,0 20.107,0 22,0c5.523,0 10,-4.477 10,-10c0,-5.523 -4.477,-10 -10,-10z" fill="url(#color-1)"></path><path d="M26.892,40.329c0.145,-0.196 0.145,-0.463 0,-0.659l-2.446,-3.311c-0.111,-0.15 -0.278,-0.225 -0.446,-0.225v7.729c0.167,0 0.335,-0.075 0.446,-0.225z" fill="#199be2"></path><path d="M33.703,35.573l-1.631,2.207c-0.096,0.13 -0.096,0.309 0,0.439l1.631,2.207c0.074,0.1 0.186,0.15 0.297,0.15l0.667,-2.576l-0.667,-2.577c-0.112,0 -0.223,0.05 -0.297,0.15z" fill="#35c1f1"></path><path d="M35.928,38.22c0.096,-0.13 0.096,-0.309 0,-0.439l-1.631,-2.207c-0.074,-0.1 -0.186,-0.15 -0.297,-0.15v5.153c0.112,0 0.223,-0.05 0.297,-0.15z" fill="#199be2"></path><path d="M13.703,35.573l-1.631,2.207c-0.096,0.13 -0.096,0.309 0,0.439l1.631,2.207c0.074,0.1 0.186,0.15 0.297,0.15l0.667,-2.576l-0.667,-2.577c-0.112,0 -0.223,0.05 -0.297,0.15z" fill="#35c1f1"></path><path d="M15.928,38.22c0.096,-0.13 0.096,-0.309 0,-0.439l-1.631,-2.207c-0.074,-0.1 -0.186,-0.15 -0.297,-0.15v5.153c0.112,0 0.223,-0.05 0.297,-0.15z" fill="#199be2"></path></g></g></g></svg>