<svg xmlns="http://www.w3.org/2000/svg" xmlns:xlink="http://www.w3.org/1999/xlink" viewBox="0,0,256,256" width="200px" height="200px" fill-rule="nonzero"><defs><linearGradient x1="20.70818" y1="7.10161" x2="25.87603" y2="38.55996" gradientUnits="userSpaceOnUse" id="color-1"><stop offset="0" stop-color="#787878"></stop><stop offset="1" stop-color="#c3c9cd"></stop></linearGradient></defs><g transform="translate(19.2,19.2) scale(0.85,0.85)"><g fill-opacity="0.25098" fill="#000000" fill-rule="nonzero" stroke="none" stroke-width="1" stroke-linecap="butt" stroke-linejoin="miter" stroke-miterlimit="10" stroke-dasharray="" stroke-dashoffset="0" font-family="none" font-weight="none" font-size="none" text-anchor="none" style="mix-blend-mode: normal"><path d="M52.70588,278.58824c-41.58379,0 -75.29412,-33.71032 -75.29412,-75.29412v-150.58824c0,-41.58379 33.71032,-75.29412 75.29412,-75.29412h150.58824c41.58379,0 75.29412,33.71032 75.29412,75.29412v150.58824c0,41.58379 -33.71032,75.29412 -75.29412,75.29412z" id="shape"></path></g><g fill="url(#color-1)" fill-rule="nonzero" stroke="none" stroke-width="1" stroke-linecap="butt" stroke-linejoin="miter" stroke-miterlimit="10" stroke-dasharray="" stroke-dashoffset="0" font-family="none" font-weight="none" font-size="none" text-anchor="none" style="mix-blend-mode: normal"><g transform="scale(5.33333,5.33333)"><path d="M48,26c0,6.631 -5.371,12.001 -12,12.001c-1.8,0 -24.66,0 -26.5,0c-5.251,0 -9.5,-4.25 -9.5,-9.501c0,-4.54 3.18,-8.34 7.449,-9.281c1.7,-7.009 8.011,-12.22 15.551,-12.22c5.509,0 10.36,2.78 13.239,7.011c6.52,0.12 11.761,5.44 11.761,11.99z"></path></g></g></g></svg>