<svg xmlns="http://www.w3.org/2000/svg" xmlns:xlink="http://www.w3.org/1999/xlink" viewBox="0,0,256,256" width="200px" height="200px" fill-rule="nonzero"><defs><linearGradient x1="5.285" y1="5.285" x2="38.113" y2="38.113" gradientUnits="userSpaceOnUse" id="color-1"><stop offset="0" stop-color="#fed100"></stop><stop offset="1" stop-color="#e36001"></stop></linearGradient></defs><g transform="translate(25.6,25.6) scale(0.8,0.8)"><g fill-opacity="0.27059" fill="#000000" fill-rule="nonzero" stroke="none" stroke-width="1" stroke-linecap="butt" stroke-linejoin="miter" stroke-miterlimit="10" stroke-dasharray="" stroke-dashoffset="0" font-family="none" font-weight="none" font-size="none" text-anchor="none" style="mix-blend-mode: normal"><path d="M48,288c-44.18278,0 -80,-35.81722 -80,-80v-160c0,-44.18278 35.81722,-80 80,-80h160c44.18278,0 80,35.81722 80,80v160c0,44.18278 -35.81722,80 -80,80z" id="shape"></path></g><g fill="none" fill-rule="nonzero" stroke="none" stroke-width="1" stroke-linecap="butt" stroke-linejoin="miter" stroke-miterlimit="10" stroke-dasharray="" stroke-dashoffset="0" font-family="none" font-weight="none" font-size="none" text-anchor="none" style="mix-blend-mode: normal"><g transform="scale(5.33333,5.33333)"><path d="M24,4c-11.046,0 -20,8.954 -20,20c0,11.046 8.954,20 20,20c11.046,0 20,-8.954 20,-20c0,-11.046 -8.954,-20 -20,-20z" fill="url(#color-1)"></path><path d="M5.675,32h-1.675c-1.104,0 -2,0.896 -2,2c0,1.104 0.896,2 2,2h3c1.104,0 2,0.896 2,2c0,1.104 -0.896,2 -2,2c-1.104,0 -2,0.896 -2,2c0,1.104 0.896,2 2,2h17c-8.199,0 -15.237,-4.939 -18.325,-12z" fill="#199be2"></path><path d="M42,40h-6.036c-3.339,2.501 -7.471,4 -11.964,4h18c0.8,0 1.485,-0.473 1.805,-1.152h0.001l0.001,-0.002c0.057,-0.123 0.104,-0.25 0.135,-0.385c0.002,-0.008 0.006,-0.016 0.008,-0.023c0.03,-0.142 0.05,-0.288 0.05,-0.438c0,-1.104 -0.896,-2 -2,-2z" fill="#199be2"></path><path d="M30,40c-1.104,0 -2,-0.896 -2,-2c0,-1.104 0.896,-2 2,-2h6c1.104,0 2,-0.896 2,-2c0,-1.104 -0.896,-2 -2,-2h-9h-3h-4c-1.104,0 -2,-0.896 -2,-2c0,-1.102 0.89,-1.994 1.99,-1.999h2.01c1.104,0 2,-0.896 2,-2v-0.001c0,-1.104 -0.896,-2 -2,-2h-14v0.001c-1.104,0 -2,0.896 -2,2c0,1.104 0.896,2 2,2v-0.001h2c1.105,0 2,0.895 2,2c0,1.105 -0.895,2 -2,2h-4.325c3.088,7.061 10.126,12 18.325,12c4.492,0 8.625,-1.499 11.964,-4z" fill="#35c1f1"></path></g></g></g></svg>