<svg xmlns="http://www.w3.org/2000/svg" xmlns:xlink="http://www.w3.org/1999/xlink" viewBox="0,0,256,256" width="200px" height="200px" fill-rule="nonzero"><defs><linearGradient x1="21.313" y1="6.079" x2="25.618" y2="31.448" gradientUnits="userSpaceOnUse" id="color-1"><stop offset="0" stop-color="#fcfcfc"></stop><stop offset="1" stop-color="#787878"></stop></linearGradient></defs><g transform="translate(15.36,15.36) scale(0.88,0.88)"><g fill-opacity="0.27059" fill="#000000" fill-rule="nonzero" stroke="none" stroke-width="1" stroke-linecap="butt" stroke-linejoin="miter" stroke-miterlimit="10" stroke-dasharray="" stroke-dashoffset="0" font-family="none" font-weight="none" font-size="none" text-anchor="none" style="mix-blend-mode: normal"><path d="M55.27273,273.45455c-40.16616,0 -72.72727,-32.56111 -72.72727,-72.72727v-145.45455c0,-40.16616 32.56111,-72.72727 72.72727,-72.72727h145.45455c40.16616,0 72.72727,32.56111 72.72727,72.72727v145.45455c0,40.16616 -32.56111,72.72727 -72.72727,72.72727z" id="shape"></path></g><g fill="none" fill-rule="nonzero" stroke="none" stroke-width="1" stroke-linecap="butt" stroke-linejoin="miter" stroke-miterlimit="10" stroke-dasharray="" stroke-dashoffset="0" font-family="none" font-weight="none" font-size="none" text-anchor="none" style="mix-blend-mode: normal"><g transform="scale(5.33333,5.33333)"><path d="M34,11c-0.331,0 -0.657,0.018 -0.98,0.049c-2.279,-3.059 -5.912,-5.049 -10.02,-5.049c-5.713,0 -10.52,3.837 -12.012,9.071c-3.939,0.498 -6.988,3.854 -6.988,7.929c0,4.418 3.582,8 8,8c1.818,0 20.107,0 22,0c5.523,0 10,-4.477 10,-10c0,-5.523 -4.477,-10 -10,-10z" fill="url(#color-1)"></path><path d="M32.414,40.414c-0.781,0.781 -2.047,0.781 -2.828,0c-0.781,-0.781 -0.781,-2.047 0,-2.828c0.781,-0.781 4.414,-1.586 4.414,-1.586c0,0 -0.805,3.633 -1.586,4.414z" fill="#199be2"></path><path d="M15.414,38.414c-0.781,0.781 -2.047,0.781 -2.828,0c-0.781,-0.781 -0.781,-2.047 0,-2.828c0.781,-0.781 4.414,-1.586 4.414,-1.586c0,0 -0.805,3.633 -1.586,4.414z" fill="#199be2"></path><path d="M22.414,46.414c-0.781,0.781 -2.047,0.781 -2.828,0c-0.781,-0.781 -0.781,-2.047 0,-2.828c0.781,-0.781 4.414,-1.586 4.414,-1.586c0,0 -0.805,3.633 -1.586,4.414z" fill="#199be2"></path></g></g></g></svg>