<svg xmlns="http://www.w3.org/2000/svg" xmlns:xlink="http://www.w3.org/1999/xlink" viewBox="0,0,256,256" width="200px" height="200px" fill-rule="nonzero"><defs><linearGradient x1="21.313" y1="6.079" x2="25.618" y2="31.448" gradientUnits="userSpaceOnUse" id="color-1"><stop offset="0" stop-color="#fcfcfc"></stop><stop offset="1" stop-color="#787878"></stop></linearGradient><linearGradient x1="20.069" y1="33.551" x2="20.721" y2="38.051" gradientUnits="userSpaceOnUse" id="color-2"><stop offset="0" stop-color="#2aa4f4"></stop><stop offset="0.595" stop-color="#0f80e3"></stop><stop offset="1" stop-color="#006dd9"></stop></linearGradient><linearGradient x1="18.712" y1="41.034" x2="19.148" y2="44.034" gradientUnits="userSpaceOnUse" id="color-3"><stop offset="0" stop-color="#2aa4f4"></stop><stop offset="0.595" stop-color="#0f80e3"></stop><stop offset="1" stop-color="#006dd9"></stop></linearGradient><linearGradient x1="34.069" y1="33.551" x2="34.721" y2="38.051" gradientUnits="userSpaceOnUse" id="color-4"><stop offset="0" stop-color="#2aa4f4"></stop><stop offset="0.595" stop-color="#0f80e3"></stop><stop offset="1" stop-color="#006dd9"></stop></linearGradient><linearGradient x1="32.712" y1="41.034" x2="33.148" y2="44.034" gradientUnits="userSpaceOnUse" id="color-5"><stop offset="0" stop-color="#2aa4f4"></stop><stop offset="0.595" stop-color="#0f80e3"></stop><stop offset="1" stop-color="#006dd9"></stop></linearGradient><linearGradient x1="13.713" y1="34.034" x2="14.148" y2="37.034" gradientUnits="userSpaceOnUse" id="color-6"><stop offset="0" stop-color="#2aa4f4"></stop><stop offset="0.595" stop-color="#0f80e3"></stop><stop offset="1" stop-color="#006dd9"></stop></linearGradient><linearGradient x1="12.069" y1="40.551" x2="12.721" y2="45.051" gradientUnits="userSpaceOnUse" id="color-7"><stop offset="0" stop-color="#2aa4f4"></stop><stop offset="0.595" stop-color="#0f80e3"></stop><stop offset="1" stop-color="#006dd9"></stop></linearGradient><linearGradient x1="27.712" y1="34.034" x2="28.148" y2="37.034" gradientUnits="userSpaceOnUse" id="color-8"><stop offset="0" stop-color="#2aa4f4"></stop><stop offset="0.595" stop-color="#0f80e3"></stop><stop offset="1" stop-color="#006dd9"></stop></linearGradient><linearGradient x1="26.069" y1="40.551" x2="26.721" y2="45.051" gradientUnits="userSpaceOnUse" id="color-9"><stop offset="0" stop-color="#2aa4f4"></stop><stop offset="0.595" stop-color="#0f80e3"></stop><stop offset="1" stop-color="#006dd9"></stop></linearGradient></defs><g transform="translate(12.8,12.8) scale(0.9,0.9)"><g fill-opacity="0.27059" fill="#000000" fill-rule="nonzero" stroke="none" stroke-width="1" stroke-linecap="butt" stroke-linejoin="miter" stroke-miterlimit="10" stroke-dasharray="" stroke-dashoffset="0" font-family="none" font-weight="none" font-size="none" text-anchor="none" style="mix-blend-mode: normal"><path d="M56.88889,270.22222c-39.27358,0 -71.11111,-31.83753 -71.11111,-71.11111v-142.22222c0,-39.27358 31.83753,-71.11111 71.11111,-71.11111h142.22222c39.27358,0 71.11111,31.83753 71.11111,71.11111v142.22222c0,39.27358 -31.83753,71.11111 -71.11111,71.11111z" id="shape"></path></g><g fill="none" fill-rule="nonzero" stroke="none" stroke-width="1" stroke-linecap="butt" stroke-linejoin="miter" stroke-miterlimit="10" stroke-dasharray="" stroke-dashoffset="0" font-family="none" font-weight="none" font-size="none" text-anchor="none" style="mix-blend-mode: normal"><g transform="scale(5.33333,5.33333)"><path d="M34,11c-0.331,0 -0.657,0.018 -0.98,0.049c-2.279,-3.059 -5.912,-5.049 -10.02,-5.049c-5.713,0 -10.52,3.837 -12.012,9.071c-3.939,0.498 -6.988,3.854 -6.988,7.929c0,4.418 3.582,8 8,8c1.818,0 20.107,0 22,0c5.523,0 10,-4.477 10,-10c0,-5.523 -4.477,-10 -10,-10z" fill="url(#color-1)"></path><path d="M22,36.5c0,0.828 -0.672,1.5 -1.5,1.5c-0.828,0 -1.5,-0.672 -1.5,-1.5c0,-0.681 1.015,-2.353 1.375,-2.925c0.058,-0.093 0.191,-0.093 0.25,0c0.36,0.572 1.375,2.244 1.375,2.925z" fill="url(#color-2)"></path><path d="M20,43c0,0.552 -0.448,1 -1,1c-0.552,0 -1,-0.448 -1,-1c0,-0.454 0.677,-1.569 0.917,-1.95c0.039,-0.062 0.128,-0.062 0.166,0c0.24,0.381 0.917,1.496 0.917,1.95z" fill="url(#color-3)"></path><path d="M36,36.5c0,0.828 -0.672,1.5 -1.5,1.5c-0.828,0 -1.5,-0.672 -1.5,-1.5c0,-0.681 1.015,-2.353 1.375,-2.925c0.058,-0.093 0.191,-0.093 0.25,0c0.36,0.572 1.375,2.244 1.375,2.925z" fill="url(#color-4)"></path><path d="M34,43c0,0.552 -0.448,1 -1,1c-0.552,0 -1,-0.448 -1,-1c0,-0.454 0.677,-1.569 0.917,-1.95c0.039,-0.062 0.128,-0.062 0.166,0c0.24,0.381 0.917,1.496 0.917,1.95z" fill="url(#color-5)"></path><path d="M15,36c0,0.552 -0.448,1 -1,1c-0.552,0 -1,-0.448 -1,-1c0,-0.454 0.677,-1.569 0.917,-1.95c0.039,-0.062 0.128,-0.062 0.166,0c0.24,0.381 0.917,1.496 0.917,1.95z" fill="url(#color-6)"></path><path d="M14,43.5c0,0.828 -0.672,1.5 -1.5,1.5c-0.828,0 -1.5,-0.672 -1.5,-1.5c0,-0.681 1.015,-2.353 1.375,-2.925c0.058,-0.093 0.191,-0.093 0.25,0c0.36,0.572 1.375,2.244 1.375,2.925z" fill="url(#color-7)"></path><path d="M29,36c0,0.552 -0.448,1 -1,1c-0.552,0 -1,-0.448 -1,-1c0,-0.454 0.677,-1.569 0.917,-1.95c0.039,-0.062 0.128,-0.062 0.166,0c0.24,0.381 0.917,1.496 0.917,1.95z" fill="url(#color-8)"></path><path d="M28,43.5c0,0.828 -0.672,1.5 -1.5,1.5c-0.828,0 -1.5,-0.672 -1.5,-1.5c0,-0.681 1.015,-2.353 1.375,-2.925c0.058,-0.093 0.191,-0.093 0.25,0c0.36,0.572 1.375,2.244 1.375,2.925z" fill="url(#color-9)"></path></g></g></g></svg>